# AST/ASF file generated using VICON BodyLanguage
# -----------------------------------------------
:version 1.10
:name VICON
:units
  mass 1.0
  length 0.45
  angle deg
:documentation
   .ast/.asf automatically generated from VICON data using
   VICON BodyBuilder and BodyLanguage model FoxedUp or BRILLIANT.MOD
:root
   order TX TY TZ RX RY RZ
   axis XYZ
   position 0 0 0  
   orientation 0 0 0 
:bonedata
  begin
     id 1 
     name lhipjoint
     direction 0.567725 -0.736092 0.368589 
     length 2.42353 
     axis 0 0 0  XYZ
  end
  begin
     id 2 
     name lfemur
     direction 0.34202 -0.939693 0  
     length 7.24894  
     axis 0 0 20  XYZ
    dof rx ry rz
    limits (-160.0 20.0)
           (-70.0 70.0)
           (-60.0 70.0)
  end
  begin
     id 3 
     name ltibia
     direction 0.34202 -0.939693 0   
     length 7.6997   
     axis 0 0 20   XYZ
    dof rx
    limits (-10.0 170.0)
  end
  begin
     id 4 
     name lfoot
     direction 0.100767 -0.276854 0.955614   
     length 2.37556   
     axis -90 7.62852e-016 20   XYZ
    dof rx rz
    limits (-45.0 90.0)
           (-70.0 20.0)
  end
  begin
     id 5 
     name ltoes
     direction 1.53592e-011 -4.21894e-011 1   
     length 1.18363   
     axis -90 7.62852e-016 20   XYZ
    dof rx
    limits (-90.0 20.0)
  end
  begin
     id 6 
     name rhipjoint
     direction -0.556459 -0.742938 0.372017   
     length 2.4012  
     axis 0 0 0  XYZ 
  end
  begin
     id 7 
     name rfemur
     direction -0.34202 -0.939693 0   
     length 7.5119   
     axis 0 0 -20   XYZ
    dof rx ry rz
    limits (-160.0 20.0)
           (-70.0 70.0)
           (-70.0 60.0)
  end
  begin
     id 8 
     name rtibia
     direction -0.34202 -0.939693 0   
     length 7.50155   
     axis 0 0 -20   XYZ
    dof rx
    limits (-10.0 170.0)
 end
 begin
     id 9 
     name rfoot
     direction -0.118427 -0.325376 0.938139   
     length 2.32487  
     axis -90 -7.62852e-016 -20   XYZ
    dof rx rz
    limits (-45.0 90.0)
           (-20.0 70.0)
  end
  begin
     id 10 
     name rtoes
     direction -1.53525e-011 -4.21868e-011 1   
     length 1.15233   
     axis -90 -7.62852e-016 -20   XYZ
    dof rx
    limits (-90.0 20.0)
  end
  begin
     id 11 
     name lowerback
     direction 0.0287568 0.999577 -0.00434502   
     length 2.15243   
     axis 0 0 0   XYZ
    dof rx ry rz
    limits (-20.0 45.0)
           (-30.0 30.0)
           (-30.0 30.0)
  end
  begin
     id 12 
     name upperback
     direction 0.0294009 0.99956 0.00404628   
     length 2.15427   
     axis 0 0 0   XYZ
    dof rx ry rz
    limits (-20.0 45.0)
           (-30.0 30.0)
           (-30.0 30.0)
  end
  begin
     id 13 
     name thorax
     direction 0.0151014 0.999868 0.0059419   
     length 2.14898   
     axis 0 0 0   XYZ
    dof rx ry rz
    limits (-20.0 45.0)
           (-30.0 30.0)
           (-30.0 30.0)
  end
  begin
     id 14 
     name lowerneck
     direction -0.0249197 0.989906 0.139515   
     length 1.6861   
     axis 0 0 0   XYZ
    dof rx ry rz
    limits (-20.0 45.0)
           (-30.0 30.0)
           (-30.0 30.0)
  end
  begin
     id 15 
     name upperneck
     direction 0.0438463 0.988795 -0.142693   
     length 1.71276   
     axis 0 0 0   XYZ
    dof rx ry rz
    limits (-20.0 45.0)
           (-30.0 30.0)
           (-30.0 30.0)
  end
  begin
     id 16
     name head
     direction 0.0148499 0.997845 -0.0639186  
     length 1.7209  
     axis 0 0 0   XYZ
    dof rx ry rz
    limits (-20.0 45.0)
           (-30.0 30.0)
           (-30.0 30.0)
  end
  begin
     id 17 
     name lclavicle
     direction 0.940298 0.323464 -0.105876  
     length 3.9048  
     axis 0 0 0   XYZ
    dof ry rz
    limits (-20.0 10.0)
           (0.0 20.0)
  end
  begin
     id 18 
     name lhumerus
     direction 1 -4.48954e-011 -4.9675e-028   
     length 4.6851   
     axis 180 -30 -90   XYZ
    dof rx ry rz
    limits (-60.0 90.0)
           (-90.0 90.0)
           (-90.0 90.0)
  end
  begin
     id 19
     name lradius
     direction 1 -4.48992e-011 -1.03359e-026   
     length 3.39626   
     axis 180 -30 -90   XYZ
    dof rx
    limits (-10.0 170.0)
  end
  begin
     id 20
     name lwrist
     direction 1 -4.48906e-011 -1.67336e-026   
     length 1.69813   
     axis 9.90442e-015 90 90   XYZ
    dof ry
    limits (-180.0 0.0)
 end
  begin
     id 21 
     name lhand
     direction 1 -4.49006e-011 -3.34673e-026   
     length 0.486078   
     axis 2.1355e-014 90 90   XYZ
    dof rx rz
    limits (-90.0 90.0)
           (-45.0 45.0)
  end
  begin
     id 22 
     name lfingers
     direction 1 -4.48992e-011 -6.69345e-026   
     length 0.391889   
     axis 4.27099e-014 90 90   XYZ
    dof rx
    limits (0.0 90.0)
  end
  begin
     id 23
     name lthumb
     direction 0.707107 -6.34926e-011 0.707107   
     length 0.562676   
     axis -90 45 2.85299e-015   XYZ
    dof rx rz
    limits (-45.0 45.0)
           (-45.0 45.0)
  end
  begin
     id 24 
     name rclavicle
     direction -0.882459 0.414895 -0.221648   
     length 3.44646  
     axis 0 0 0   XYZ 
    dof ry rz
    limits (-10.0 20.0)
           (-20.0 0.0)
  end
  begin
     id 25 
     name rhumerus
     direction -1 -4.48962e-011 -2.37984e-027  
     length 5.55576   
     axis 180 30 90   XYZ
    dof rx ry rz
    limits (-90.0 60.0)
           (-90.0 90.0)
           (-90.0 90.0)
  end
  begin
     id 26 
     name rradius
     direction -1 -4.48982e-011 -6.86791e-027   
     length 3.32774   
     axis 180 30 90   XYZ
    dof rx
    limits (-10.0 170.0)
  end
  begin
     id 27 
     name rwrist
     direction -1 -4.48961e-011 -1.67336e-026   
     length 1.66387   
     axis 9.90442e-015 -90 -90   XYZ
    dof ry
    limits (-180.0 0.0)
  end
  begin
     id 28
     name rhand
     direction -1 -4.4897e-011 -3.34673e-026   
     length 0.507628   
     axis 2.1355e-014 -90 -90   XYZ
    dof rx rz
    limits (-90.0 90.0)
           (-45.0 45.0)
  end
  begin
     id 29
     name rfingers
     direction -1 -4.48854e-011 -6.69345e-026   
     length 0.409263   
     axis 4.27099e-014 -90 -90   XYZ
    dof rx
    limits (0.0 90.0)
  end
  begin
     id 30
     name rthumb
     direction -0.707107 -6.34913e-011 0.707107   
     length 0.587622   
     axis -90 -45 -2.85299e-015   XYZ
    dof rx rz
    limits (-45.0 45.0)
           (-45.0 45.0)
  end
:hierarchy
  begin
    root lhipjoint rhipjoint lowerback
    lhipjoint lfemur
    lfemur ltibia
    ltibia lfoot
    lfoot ltoes
    rhipjoint rfemur
    rfemur rtibia
    rtibia rfoot
    rfoot rtoes
    lowerback upperback
    upperback thorax
    thorax lowerneck lclavicle rclavicle
    lowerneck upperneck
    upperneck head
    lclavicle lhumerus
    lhumerus lradius
    lradius lwrist
    lwrist lhand lthumb
    lhand lfingers
    rclavicle rhumerus
    rhumerus rradius
    rradius rwrist
    rwrist rhand rthumb
    rhand rfingers
  end

#!OML:ASF E:\motion texture\Top Level 1\Subject 1\Session 1\male.ASF
:FULLY-SPECIFIED
:DEGREES
1
root 31.8783 17.7463 2.64943 95.1264 -87.8183 -88.9887
lowerback -1.45365 -0.454752 0.9235
upperback -0.333583 -0.65506 2.2446
thorax 0.489314 -0.336925 1.7693
lowerneck -12.1905 -1.99804 -4.19704
upperneck 17.0091 -2.72603 3.62409
head 7.33432 -1.30128 1.59914
rclavicle -3.60297e-015 3.89618e-014
rhumerus -17.6211 -10.0926 -74.7321
rradius 75.7373
rwrist -38.0838
rhand 2.05747 -24.94
rfingers 7.12502
rthumb 27.5596 -52.9425
lclavicle -3.60297e-015 3.89618e-014
lhumerus -16.984 25.6414 81.62
lradius 62.4648
lwrist 46.5798
lhand 9.10183 26.4637
lfingers 7.12502
lthumb 34.274 53.1862
rfemur -26.4422 -6.48309 19.6892
rtibia 65.9883
rfoot 2.35003 -17.4354
rtoes 9.23946
lfemur -10.2125 -2.85344 -21.813
ltibia 13.3344
lfoot -6.89705 -0.87891
ltoes 7.1797
2
root 31.7666 17.7478 2.65868 85.5869 -87.8084 -79.5002
lowerback -1.35664 -0.570231 0.792216
upperback -0.416813 -0.804759 2.34028
thorax 0.356504 -0.412204 1.94005
lowerneck -11.7966 -1.9192 -4.15977
upperneck 16.8229 -2.62042 3.53665
head 7.19797 -1.26093 1.577
rclavicle 1.19271e-015 -9.54166e-015
rhumerus -17.7548 -10.2864 -74.501
rradius 76.2789
rwrist -38.2276
rhand 2.01555 -24.7963
rfingers 7.12502
rthumb 27.5195 -52.8051
lclavicle 1.19271e-015 -9.54166e-015
lhumerus -16.4785 24.8895 82.2426
lradius 62.9295
lwrist 46.1445
lhand 9.06089 26.1378
lfingers 7.12502
lthumb 34.2351 52.869
rfemur -27.3306 -6.49011 19.7379
rtibia 65.4153
rfoot 1.28385 -17.3989
rtoes 8.8811
lfemur -9.74985 -3.06701 -21.9362
ltibia 13.3532
lfoot -7.24116 -0.982717
ltoes 7.16156
3
root 31.6558 17.7483 2.66848 76.2605 -87.8102 -70.25
lowerback -1.12857 -0.665611 0.636345
upperback -0.453154 -0.924456 2.38448
thorax 0.198011 -0.47168 2.07418
lowerneck -11.8206 -1.86158 -4.10302
upperneck 16.8042 -2.5393 3.48119
head 7.19132 -1.22268 1.55736
rclavicle 5.66536e-015 -2.06736e-014
rhumerus -17.7805 -10.593 -74.309
rradius 76.8166
rwrist -38.3246
rhand 2.23475 -24.6311
rfingers 7.12502
rthumb 27.7291 -52.6063
lclavicle 5.66536e-015 -2.06736e-014
lhumerus -15.9114 24.0958 82.8193
lradius 63.4503
lwrist 45.704
lhand 9.31073 25.7499
lfingers 7.12502
lthumb 34.4723 52.4276
rfemur -28.1386 -6.46216 19.6964
rtibia 64.6828
rfoot 0.049901 -17.4836
rtoes 7.86904
lfemur -9.21767 -3.28138 -22.1486
ltibia 13.2894
lfoot -7.54174 -1.15678
ltoes 7.29666
4
root 31.5461 17.7467 2.6763 69.7981 -87.7955 -63.8034
lowerback -1.06666 -0.742704 0.4805
upperback -0.40945 -1.0256 2.43284
thorax 0.214855 -0.522395 2.21057
lowerneck -11.8677 -1.80692 -4.11706
upperneck 16.6712 -2.45833 3.51801
head 7.15378 -1.17913 1.57914
rclavicle -3.97569e-016 -1.07344e-014
rhumerus -17.6469 -10.8894 -74.1425
rradius 77.3542
rwrist -38.3141
rhand 2.06908 -24.526
rfingers 7.12502
rthumb 27.5707 -52.5267
lclavicle -3.97569e-016 -1.07344e-014
lhumerus -15.1321 23.4185 83.3772
lradius 63.8632
lwrist 44.8857
lhand 9.70378 25.7465
lfingers 7.12502
lthumb 34.8453 52.3386
rfemur -28.9616 -6.37177 19.6894
rtibia 63.6752
rfoot -0.755005 -17.5441
rtoes 7.86293
lfemur -8.7527 -3.35723 -22.3135
ltibia 13.215
lfoot -7.8231 -1.28049
ltoes 7.21041
5
root 31.4362 17.7458 2.68455 62.697 -87.7322 -56.7327
lowerback -0.950092 -0.824553 0.324315
upperback -0.420267 -1.13121 2.48256
thorax 0.146146 -0.574938 2.35003
lowerneck -11.8076 -1.74212 -4.0709
upperneck 16.5639 -2.37012 3.48741
head 7.10385 -1.13639 1.57026
rclavicle 1.63997e-015 -7.95139e-015
rhumerus -17.6102 -11.1866 -73.9572
rradius 77.8776
rwrist -38.3108
rhand 2.03575 -24.3982
rfingers 7.12502
rthumb 27.5388 -52.4039
lclavicle 1.63997e-015 -7.95139e-015
lhumerus -14.5079 22.6397 83.8828
lradius 64.2934
lwrist 44.0401
lhand 9.91522 25.5692
lfingers 7.12502
lthumb 35.0459 52.1145
rfemur -29.7541 -6.29201 19.6623
rtibia 62.7082
rfoot -1.67411 -17.6466
rtoes 7.73232
lfemur -8.27877 -3.46433 -22.4796
ltibia 13.1584
lfoot -8.12048 -1.44502
ltoes 7.24615
6
root 31.3266 17.7441 2.69238 56.2825 -87.6509 -50.3335
lowerback -0.835149 -0.900308 0.167081
upperback -0.433789 -1.22892 2.5255
thorax 0.0758648 -0.623336 2.48362
lowerneck -11.7703 -1.67593 -4.00446
upperneck 16.4731 -2.28223 3.44925
head 7.06311 -1.093 1.55538
rclavicle -9.44227e-015 2.62396e-014
rhumerus -17.5599 -11.5036 -73.7776
rradius 78.3841
rwrist -38.2401
rhand 1.9813 -24.289
rfingers 7.12502
rthumb 27.4867 -52.303
lclavicle -9.44227e-015 2.62396e-014
lhumerus -13.8993 21.8222 84.336
lradius 64.6956
lwrist 43.0045
lhand 10.0879 25.4118
lfingers 7.12502
lthumb 35.2097 51.9186
rfemur -30.5113 -6.19792 19.6252
rtibia 61.6059
rfoot -2.43846 -17.8262
rtoes 7.96399
lfemur -7.82664 -3.55162 -22.6424
ltibia 13.1074
lfoot -8.41426 -1.62482
ltoes 7.29366
7
root 31.2173 17.7419 2.69984 50.6564 -87.5515 -44.7038
lowerback -0.750734 -0.970171 0.0167487
upperback -0.434825 -1.31987 2.56434
thorax 0.0355927 -0.668452 2.6088
lowerneck -11.7618 -1.6118 -3.92278
upperneck 16.3886 -2.19822 3.40718
head 7.02953 -1.05045 1.53617
rclavicle 4.82053e-015 -1.07344e-014
rhumerus -17.4671 -11.8464 -73.6137
rradius 78.8614
rwrist -38.0826
rhand 1.90438 -24.2076
rfingers 7.12502
rthumb 27.4131 -52.2333
lclavicle 4.82053e-015 -1.07344e-014
lhumerus -13.2766 20.971 84.7444
lradius 65.0583
lwrist 41.7718
lhand 10.2081 25.2802
lfingers 7.12502
lthumb 35.3237 51.76
rfemur -31.2333 -6.09168 19.5867
rtibia 60.3686
rfoot -3.13445 -18.0542
rtoes 8.11479
lfemur -7.40095 -3.62764 -22.793
ltibia 13.0631
lfoot -8.70246 -1.80813
ltoes 7.33973
8
root 31.1082 17.7391 2.70697 45.7081 -87.4349 -39.7332
lowerback -0.673086 -1.03526 -0.125519
upperback -0.444844 -1.40468 2.60035
thorax -0.0100585 -0.710364 2.72683
lowerneck -11.7613 -1.54827 -3.83271
upperneck 16.3228 -2.11729 3.36511
head 7.00357 -1.00896 1.51526
rclavicle 5.01931e-015 3.57812e-015
rhumerus -17.3752 -12.2052 -73.4547
rradius 79.3117
rwrist -37.8173
rhand 1.82025 -24.1581
rfingers 7.12502
rthumb 27.3327 -52.1965
lclavicle 5.01931e-015 3.57812e-015
lhumerus -12.6895 20.0696 85.0972
lradius 65.3888
lwrist 40.3449
lhand 10.2585 25.1543
lfingers 7.12502
lthumb 35.3715 51.6228
rfemur -31.9112 -5.97776 19.5461
rtibia 58.9905
rfoot -3.75813 -18.3239
rtoes 8.1364
lfemur -7.00213 -3.70856 -22.9337
ltibia 13.029
lfoot -8.98711 -1.98653
ltoes 7.39023
9
root 30.9993 17.7359 2.71373 41.3822 -87.3104 -35.366
lowerback -0.606052 -1.09646 -0.25818
upperback -0.453028 -1.48467 2.63027
thorax -0.0480138 -0.749849 2.83318
lowerneck -11.8031 -1.48819 -3.73856
upperneck 16.2805 -2.04162 3.32655
head 6.99292 -0.969038 1.49418
rclavicle 8.39865e-015 2.06736e-014
rhumerus -17.262 -12.5776 -73.313
rradius 79.7263
rwrist -37.4193
rhand 1.71233 -24.1489
rfingers 7.12502
rthumb 27.2294 -52.2035
lclavicle 8.39865e-015 2.06736e-014
lhumerus -12.1154 19.1253 85.3963
lradius 65.6872
lwrist 38.7504
lhand 9.94801 25.0243
lfingers 7.12502
lthumb 35.077 51.5624
rfemur -32.5462 -5.8582 19.4987
rtibia 57.4777
rfoot -4.32175 -18.5886
rtoes 7.93333
lfemur -6.62653 -3.79432 -23.0697
ltibia 12.9973
lfoot -9.26518 -2.15206
ltoes 7.41968
10
root 30.8901 17.7323 2.72037 37.7102 -87.1777 -31.6343
lowerback -0.561474 -1.15224 -0.37234
upperback -0.458209 -1.558 2.65522
thorax -0.0708465 -0.786117 2.92367
lowerneck -11.865 -1.43378 -3.65651
upperneck 16.2411 -1.97459 3.30957
head 6.98752 -0.931875 1.48122
rclavicle -7.00716e-015 -2.38542e-014
rhumerus -17.1408 -12.9615 -73.1849
rradius 80.1091
rwrist -36.8725
rhand 1.58632 -24.1921
rfingers 7.12502
rthumb 27.1089 -52.2656
lclavicle -7.00716e-015 -2.38542e-014
lhumerus -11.5578 18.1266 85.6448
lradius 65.9484
lwrist 36.9876
lhand 9.43282 24.918
lfingers 7.12502
lthumb 34.5882 51.5693
rfemur -33.1303 -5.73169 19.4499
rtibia 55.8261
rfoot -4.83192 -18.8236
rtoes 7.53539
lfemur -6.26795 -3.88823 -23.1961
ltibia 12.9617
lfoot -9.53743 -2.29566
ltoes 7.44099
